<svg width="193" height="160" viewBox="0 0 193 160" fill="none" xmlns="http://www.w3.org/2000/svg">
<path d="M24.6421 67.0984L92.6703 24.1631L160.699 67.0984V129.742H24.6421V67.0984V67.0984Z" fill="#E6E7E8"/>
<path fill-rule="evenodd" clip-rule="evenodd" d="M24.3272 129.742C24.3272 129.916 24.4683 130.056 24.6423 130.056H160.699C160.871 130.071 161.022 129.945 161.039 129.773V67.1296C161.039 67.0211 160.981 66.9207 160.888 66.8653L92.8343 23.9237C92.7318 23.8614 92.603 23.8614 92.5004 23.9237L24.4721 66.8338C24.3801 66.8898 24.3249 66.9906 24.3272 67.0982V129.742ZM160.415 129.427H24.9384V67.2744L92.6705 24.5531L160.415 67.2744V129.427Z" fill="#231F20"/>
<path d="M109.243 50.2347C111.505 46.502 112.078 41.9637 111.87 37.6078C111.719 32.8422 110.462 28.1769 108.197 23.9801C107.277 22.1777 105.926 20.6297 104.265 19.4731C102.223 18.2142 100.83 19.064 98.8329 18.7241C97.1442 18.4345 95.3798 17.2323 93.5084 16.9238C89.1911 16.1865 84.7546 17.1134 81.0949 19.5172C74.6928 23.8416 71.7376 32.1063 65.1212 36.1223C58.6373 40.0375 50.3385 38.8604 43.0669 41.0258C39.9975 41.9447 37.1377 43.4543 34.6484 45.4697C32.9287 46.7849 31.5215 48.4636 30.5274 50.3858C28.8198 53.9485 29.2672 58.1911 30.5274 61.9489C31.7877 65.8138 33.9175 69.5024 37.2193 71.9006C39.9856 73.896 43.382 74.815 46.7405 75.4193C51.3089 76.2439 56.0412 76.5523 60.6033 75.5641C63.9703 74.8853 67.1084 73.3601 69.7212 71.1327C70.8428 70.1319 71.4603 68.7659 72.5063 67.7714C73.9493 66.4055 76.1988 65.5683 77.8876 64.5234C80.5278 62.8805 83.1743 61.1306 86.1863 60.3501C93.836 58.361 104.63 57.8197 109.243 50.2347Z" fill="white"/>
<path fill-rule="evenodd" clip-rule="evenodd" d="M46.6716 75.7278C49.2564 76.2163 51.8798 76.4733 54.5104 76.4957C56.576 76.5194 58.6381 76.3189 60.6604 75.8977C64.0962 75.2062 67.2953 73.6409 69.9484 71.3531C70.5233 70.8079 71.0348 70.1998 71.4733 69.5402C71.8441 68.984 72.266 68.4635 72.7336 67.9855C73.7667 67.1148 74.9135 66.3885 76.1425 65.8264C76.8042 65.4865 77.4343 65.1403 78.0644 64.7689L78.6945 64.3598L78.7462 64.3277C81.1181 62.8522 83.5598 61.3334 86.256 60.6397C87.7015 60.2622 89.244 59.9475 90.8781 59.6141L91.1269 59.5633L91.1275 59.5632C97.9705 58.1658 105.708 56.5858 109.489 50.4047C111.53 47.0623 112.406 42.782 112.16 37.6204C112.016 32.8073 110.744 28.0948 108.449 23.8605C107.511 22.0143 106.124 20.4324 104.416 19.2592C103.34 18.595 102.064 18.3298 100.812 18.5101C100.17 18.5701 99.5226 18.5553 98.8837 18.466C98.0389 18.276 97.217 17.9953 96.4325 17.6289C95.5107 17.1802 94.5372 16.8462 93.534 16.6343C89.1472 15.8965 84.6436 16.8481 80.9315 19.2969C77.8061 21.4245 75.462 24.5025 73.1998 27.4799L73.1774 27.5093C70.7963 30.6412 68.3373 33.8752 64.9704 35.9083C61.1015 38.2436 56.6591 38.7346 51.9583 39.2507C48.93 39.4975 45.9294 40.0115 42.9917 40.7866C39.8875 41.7153 36.9955 43.2421 34.4787 45.2809C32.7189 46.6233 31.2845 48.3445 30.2821 50.3166C28.3476 54.3074 29.2046 58.9465 30.238 62.0937C31.6872 66.4999 34.025 70.006 37.0307 72.1651C40.0364 74.3241 43.7604 75.2053 46.6716 75.7278ZM81.2591 19.8068C84.0351 17.9596 87.2999 16.982 90.6354 16.9994C91.5968 17.0068 92.5559 17.0952 93.5025 17.2638C94.4519 17.4618 95.3742 17.7724 96.2498 18.1891C97.071 18.5766 97.9335 18.8701 98.8207 19.064C99.5032 19.1601 100.194 19.1791 100.881 19.1207C102.012 18.9323 103.172 19.1557 104.152 19.7501C105.775 20.8787 107.091 22.3929 107.983 24.1563C110.235 28.3111 111.48 32.9355 111.619 37.6582C111.858 42.7065 110.988 46.8986 109.035 50.1215C105.406 56.0887 97.781 57.6435 91.045 59.0094C89.2995 59.3619 87.6864 59.6955 86.1489 60.0921C83.3598 60.7996 80.8762 62.3478 78.4748 63.8447L78.4362 63.8688L77.7682 64.2842C77.1822 64.643 76.5521 64.9704 75.8779 65.3166C74.5998 65.9023 73.4082 66.6605 72.3366 67.57C71.8377 68.0713 71.3883 68.6194 70.9944 69.2066C70.579 69.8313 70.095 70.4077 69.5514 70.925C66.9731 73.1446 63.8652 74.6622 60.528 75.3312C56.5898 76.1873 52.1033 76.1369 46.7976 75.1865C43.9495 74.6703 40.2821 73.7953 37.3899 71.7118C34.4976 69.6283 32.2228 66.2419 30.8114 61.9049C29.7969 58.852 28.984 54.3892 30.8114 50.5747C31.7839 48.6885 33.166 47.0433 34.8568 45.7593C37.3152 43.7629 40.1408 42.2661 43.1744 41.3531C46.0767 40.5873 49.0417 40.0818 52.034 39.8424L52.0772 39.8376C56.6071 39.3356 61.3031 38.8151 65.2666 36.4182C68.7309 34.333 71.2292 31.0445 73.6439 27.866L73.6598 27.845L73.6925 27.802C75.9193 24.8758 78.2179 21.8551 81.2591 19.8068Z" fill="#231F20"/>
<path d="M134.952 44.066L131.637 56.5293L139.621 57.9518L144.171 41.3027C144.171 41.3027 137.075 35.8768 135.979 35.839C134.883 35.8012 134.952 44.066 134.952 44.066Z" fill="white"/>
<path fill-rule="evenodd" clip-rule="evenodd" d="M139.564 58.2668H139.621C139.754 58.265 139.87 58.1789 139.911 58.0528L144.467 41.4036C144.499 41.2798 144.454 41.1487 144.353 41.07C143.15 40.1573 137.113 35.5812 135.985 35.5434C135.828 35.5372 135.677 35.5992 135.569 35.7133C134.637 36.6135 134.637 42.7318 134.637 44.0662L131.347 56.4728C131.323 56.5574 131.336 56.6485 131.383 56.7231C131.43 56.7977 131.506 56.8486 131.593 56.8631L139.564 58.2668ZM139.407 57.5933L132.059 56.2966L135.286 44.167C135.289 44.1398 135.289 44.1123 135.286 44.0851C135.261 40.5602 135.538 36.4876 135.985 36.154C136.59 36.1728 140.409 38.8292 143.818 41.4225L139.407 57.5933Z" fill="#231F20"/>
<path d="M126.325 35.9146C126.325 35.9146 127.453 38.4324 129.079 38.8416C130.705 39.2507 134.24 37.5071 134.649 37.7337C135.059 37.9604 144.385 44.9347 145.292 45.1425C146.2 45.3502 147.869 43.1534 148.581 40.5411C148.581 40.5411 139.508 34.3599 138.915 33.7052C138.323 33.0506 137.617 29.1354 136.735 27.7002L126.325 35.9146Z" fill="white"/>
<path fill-rule="evenodd" clip-rule="evenodd" d="M145.191 45.4763C145.256 45.4824 145.322 45.4824 145.387 45.4763C146.615 45.4763 148.222 42.9711 148.871 40.6799C148.909 40.5512 148.858 40.4127 148.745 40.3399C145.109 37.8599 139.552 34.0076 139.136 33.5481C138.747 32.7702 138.455 31.948 138.266 31.0995C137.975 29.8884 137.553 28.7127 137.006 27.5934C136.956 27.5189 136.879 27.4669 136.792 27.4487C136.703 27.434 136.611 27.4568 136.54 27.5116L126.149 35.6946C126.035 35.7818 125.998 35.9369 126.061 36.0659C126.062 36.0677 126.063 36.0701 126.064 36.0731C126.149 36.2554 127.299 38.7173 129.022 39.1754C130.113 39.4634 131.901 38.8736 133.216 38.4399L133.238 38.4327C133.388 38.3803 133.549 38.3167 133.706 38.2553C134.075 38.1101 134.414 37.9768 134.498 38.0298C134.618 38.1054 135.588 38.8041 136.704 39.6224C141.65 43.2292 144.624 45.3378 145.191 45.4763ZM134.801 37.457C134.721 37.4163 134.632 37.3968 134.542 37.4004C134.017 37.4632 133.502 37.5944 133.011 37.7906L132.997 37.7952C131.831 38.1793 130.071 38.7591 129.155 38.5208C127.976 38.225 127.025 36.5947 126.716 36.003L136.615 28.1788C137.031 29.1662 137.374 30.1822 137.642 31.2191C138.065 32.6543 138.336 33.5607 138.657 33.9132C139.224 34.5489 146.66 39.635 148.191 40.6736C147.428 43.2606 145.929 44.9979 145.336 44.8406C144.829 44.7058 140.98 41.916 138.302 39.9751C137.853 39.6499 137.437 39.3484 137.075 39.0873C136.904 38.9624 136.743 38.8455 136.593 38.7363C135.448 37.9041 134.918 37.5182 134.801 37.457Z" fill="#231F20"/>
<path d="M136.244 30.048C136.169 30.7135 136.294 31.386 136.603 31.9804C137.113 32.8931 139.375 34.108 139.375 34.108L140.951 30.9607L137.863 28.7324L136.244 30.048Z" fill="#231F20"/>
<path fill-rule="evenodd" clip-rule="evenodd" d="M139.23 34.3846C139.274 34.4097 139.324 34.4227 139.375 34.4224C139.408 34.4204 139.44 34.4119 139.47 34.3972C139.551 34.3725 139.62 34.3158 139.659 34.2399L141.234 31.0926C141.299 30.9552 141.257 30.791 141.133 30.7023L138.052 28.474C137.937 28.3837 137.776 28.3837 137.661 28.474L136.042 29.8085C135.983 29.8576 135.944 29.9273 135.935 30.0036C135.851 30.7365 135.99 31.4775 136.332 32.1312C136.867 33.0943 138.985 34.2588 139.23 34.3846ZM136.88 31.829C136.623 31.3327 136.507 30.7752 136.546 30.2176L137.875 29.1161L140.547 31.0485L139.243 33.6797C138.512 33.2579 137.208 32.4585 136.88 31.829Z" fill="#231F20"/>
<path d="M146.124 38.8733C146.124 38.8733 146.949 36.2736 145.494 36.0911C145.467 35.6257 145.199 35.2082 144.787 34.9895C144.375 34.7708 143.878 34.7828 143.477 35.021C143.477 35.021 143.011 33.0885 141.486 33.4788C139.961 33.8691 138.751 37.5136 138.966 38.4326C139.18 39.3516 140.364 38.7914 140.963 37.9291C140.963 37.9291 140.188 39.3642 140.705 39.7419C141.461 40.2958 142.255 39.3139 142.898 38.5963C142.898 38.5963 141.946 40.2769 143.345 40.428C144.422 40.5476 145.424 38.376 145.424 38.376L146.124 38.8733Z" fill="white"/>
<path fill-rule="evenodd" clip-rule="evenodd" d="M143.282 40.749H143.402C144.366 40.749 145.172 39.4775 145.475 38.8354L145.903 39.1313C145.987 39.1875 146.092 39.2015 146.187 39.1691C146.282 39.139 146.355 39.0633 146.382 38.9676C146.458 38.7851 146.943 37.1926 146.382 36.3176C146.23 36.0766 145.995 35.8996 145.721 35.8203C145.607 35.3516 145.319 34.944 144.914 34.681C144.522 34.4829 144.066 34.4556 143.654 34.6055C143.471 34.0944 143.131 33.6538 142.683 33.3466C142.293 33.1121 141.822 33.0527 141.385 33.1829C139.646 33.6298 138.392 37.4443 138.625 38.5081C138.675 38.8578 138.94 39.1381 139.287 39.2068C139.605 39.251 139.928 39.1819 140.201 39.0117C140.098 39.3682 140.208 39.7518 140.484 39.9999C141.108 40.4594 141.713 40.1699 142.236 39.7104C142.239 40.285 142.707 40.749 143.282 40.749ZM143.055 38.3445C143.001 38.3023 142.934 38.2801 142.866 38.2815C142.778 38.2817 142.693 38.3181 142.633 38.3822L142.501 38.5333C141.82 39.2887 141.297 39.8048 140.856 39.4838C140.711 39.3768 140.887 38.697 141.209 38.0675C141.283 37.9205 141.234 37.7409 141.095 37.6521C140.953 37.5655 140.769 37.6041 140.673 37.7402C140.404 38.1974 139.939 38.506 139.413 38.5774C139.369 38.5711 139.287 38.5522 139.243 38.3571C139.073 37.5577 140.201 34.1208 141.543 33.7809C141.814 33.6959 142.109 33.7278 142.356 33.869C142.75 34.1751 143.03 34.6054 143.15 35.0902C143.174 35.1805 143.236 35.2561 143.32 35.2979C143.404 35.3359 143.5 35.3359 143.584 35.2979C143.901 35.1145 144.284 35.0866 144.624 35.2224C144.917 35.4392 145.111 35.7628 145.166 36.1225C145.187 36.2625 145.297 36.3725 145.437 36.3932C145.613 36.4058 145.773 36.4987 145.872 36.6449C146.078 37.1917 146.098 37.7915 145.928 38.3508L145.576 38.1053C145.499 38.0502 145.401 38.0339 145.311 38.0612C145.222 38.0864 145.149 38.1483 145.109 38.2312C144.813 38.8606 143.981 40.1888 143.351 40.1195C143.005 40.0818 142.916 39.9433 142.916 39.8992C142.765 39.6034 143.005 38.9991 143.143 38.7536C143.219 38.6142 143.182 38.4403 143.055 38.3445Z" fill="#231F20"/>
<path d="M139.388 31.074C139.388 31.074 138.525 29.5759 137.617 30.8914C136.71 32.207 135.62 34.6682 137.132 34.9326C138.644 35.1969 139.779 32.377 139.388 31.074Z" fill="white"/>
<path fill-rule="evenodd" clip-rule="evenodd" d="M137.082 35.2539C137.163 35.2601 137.245 35.2601 137.327 35.2539C137.869 35.2285 138.374 34.9717 138.714 34.5489C139.544 33.5631 139.901 32.2636 139.69 30.9925L139.659 30.9232C139.658 30.9219 139.657 30.9203 139.656 30.9186C139.593 30.8163 139.137 30.0729 138.455 30.042C137.995 30.0595 137.579 30.3178 137.359 30.7218C136.71 31.6534 135.733 33.5229 136.174 34.5741C136.333 34.9463 136.679 35.2055 137.082 35.2539ZM137.875 31.0554C138.002 30.8729 138.203 30.6526 138.411 30.6526H138.424C138.707 30.6652 138.991 31.0239 139.092 31.1876C139.228 32.239 138.919 33.2994 138.241 34.1146C137.996 34.4501 137.597 34.6376 137.182 34.6119C136.995 34.5978 136.83 34.4816 136.754 34.3097C136.489 33.674 137.113 32.157 137.875 31.0554Z" fill="#231F20"/>
<path d="M134.946 44.9101C134.946 44.9101 133.95 40.1577 133.855 39.3079C133.698 37.8664 134.038 35.613 135.305 35.2605C136.571 34.908 139.47 34.5744 138.991 35.8459C138.556 37.0041 136.017 37.2244 136.017 37.2244C136.017 37.2244 137.768 38.9869 137.504 40.7431" fill="white"/>
<path d="M134.946 45.2245C134.798 45.2251 134.669 45.123 134.637 44.979C134.599 44.7839 133.641 40.1951 133.547 39.3139C133.383 37.8409 133.698 35.3546 135.223 34.9077C136.017 34.6874 138.443 34.2342 139.155 35.0084C139.375 35.2528 139.427 35.6047 139.287 35.9022C138.928 36.8716 137.479 37.2555 136.641 37.4066C137.17 38.0738 138.021 39.3894 137.813 40.7364C137.796 40.8489 137.72 40.9438 137.614 40.9854C137.508 41.027 137.388 41.009 137.299 40.9382C137.21 40.8674 137.166 40.7545 137.183 40.642C137.422 39.0621 135.803 37.4066 135.79 37.394C135.704 37.3059 135.675 37.177 135.714 37.0604C135.758 36.9465 135.864 36.868 135.985 36.859C136.615 36.8023 138.392 36.4813 138.689 35.6819C138.758 35.5119 138.689 35.4616 138.689 35.4364C138.355 35.065 136.609 35.1783 135.387 35.5119C134.36 35.7952 134.019 37.8472 134.171 39.2195C134.265 40.044 135.248 44.7524 135.254 44.7964C135.273 44.8784 135.257 44.9644 135.211 45.0345C135.164 45.1046 135.091 45.1527 135.009 45.1678L134.946 45.2245Z" fill="#231F20"/>
<path d="M153.553 26.8884C153.553 26.8884 143.055 25.8498 138.77 28.3298C137.693 28.9721 136.662 29.6871 135.683 30.47C133.357 32.2891 131.171 34.3537 129.47 35.5056C126.092 37.7717 122.828 38.2312 120.604 34.6244C118.713 31.5464 119.816 30.086 122.374 27.3479C123.635 25.9945 126.306 23.76 128.606 21.2862C129.966 19.911 131.113 18.3411 132.009 16.6282C133.95 12.5493 133.402 6.29883 133.402 6.29883L153.553 26.8884Z" fill="white"/>
<path fill-rule="evenodd" clip-rule="evenodd" d="M123.742 37.469C124.073 37.5432 124.411 37.5791 124.75 37.576C126.193 37.576 127.831 36.9717 129.659 35.7631C130.861 34.9047 132.018 33.9844 133.124 33.0061C134 32.257 134.939 31.4765 135.891 30.7275C136.857 29.9534 137.876 29.2468 138.94 28.6125C142.865 26.3305 152.34 27.1053 153.432 27.1946C153.493 27.1996 153.528 27.2025 153.534 27.2025C153.667 27.2127 153.792 27.1401 153.849 27.02C153.905 26.9021 153.883 26.7619 153.792 26.6675L133.628 6.05903C133.537 5.95997 133.391 5.93192 133.269 5.98979C133.149 6.04677 133.076 6.17193 133.087 6.30452C133.093 6.36747 133.616 12.5361 131.726 16.5017C130.846 18.186 129.718 19.7286 128.38 21.0779C127.05 22.4753 125.632 23.8223 124.372 24.9931C123.465 25.8303 122.683 26.5605 122.141 27.1396C119.558 29.9092 118.304 31.5017 120.339 34.8001C121.05 36.126 122.284 37.094 123.742 37.469ZM132.299 16.7724C133.836 13.5055 133.843 8.98601 133.767 7.09764L152.759 26.529C150.15 26.3339 142.286 25.9688 138.638 28.09C137.539 28.7409 136.487 29.4665 135.487 30.2617C134.662 30.9071 133.86 31.5807 133.077 32.2379C132.952 32.3434 132.827 32.4484 132.702 32.5529C131.615 33.5154 130.477 34.4189 129.293 35.2596C127.195 36.6633 125.374 37.2109 123.874 36.8836C122.586 36.536 121.499 35.6698 120.875 34.4916C119.073 31.5521 120.081 30.2428 122.601 27.5676C123.113 27.0195 123.872 26.3148 124.742 25.5065L124.8 25.4526L124.824 25.4312C126.084 24.2594 127.506 22.9386 128.84 21.5059C130.221 20.1083 131.387 18.513 132.299 16.7724Z" fill="#231F20"/>
<path d="M136.244 30.0477C133.918 31.8669 131.108 34.2777 129.47 35.4988C125.727 38.2936 123.358 38.5895 120.913 35.1338C118.392 31.5836 119.816 30.0981 122.375 27.3537C123.635 26.0003 126.307 23.7658 128.606 21.292C128.606 21.292 128.751 23.8665 131.316 27.0075C132.575 28.5393 134.309 29.6089 136.244 30.0477V30.0477Z" fill="#231F20"/>
<path fill-rule="evenodd" clip-rule="evenodd" d="M124.145 37.9288C124.337 37.9596 124.531 37.9743 124.725 37.9728C126.073 37.9728 127.649 37.2679 129.659 35.7509C130.486 35.1353 131.603 34.2195 132.802 33.2372C132.89 33.1648 132.979 33.0921 133.068 33.019C133.203 32.9086 133.339 32.7977 133.475 32.6867C134.479 31.8671 135.496 31.037 136.439 30.2998C136.534 30.2195 136.577 30.0941 136.552 29.9724C136.519 29.8535 136.422 29.7635 136.3 29.7395C134.441 29.3077 132.776 28.277 131.562 26.8063C129.104 23.7912 128.922 21.2733 128.922 21.2733C128.914 21.1478 128.832 21.0389 128.714 20.9964C128.596 20.9516 128.463 20.9842 128.38 21.0782C127.05 22.4756 125.632 23.8226 124.372 24.9934C124.298 25.0615 124.225 25.1288 124.153 25.1953C123.339 25.9458 122.637 26.5931 122.11 27.1714L122.101 27.1806C119.548 29.9195 118.004 31.5755 120.654 35.3165C121.776 36.9028 122.885 37.7337 124.145 37.9288ZM124.801 25.4529C125.928 24.408 127.189 23.2372 128.392 21.9783C128.86 23.9063 129.778 25.6964 131.07 27.2028C132.236 28.6177 133.791 29.6596 135.544 30.199C134.612 30.9418 133.629 31.7475 132.671 32.5343C132.43 32.7312 132.192 32.927 131.958 33.1194C130.936 33.9602 129.994 34.735 129.281 35.2473C127.094 36.8776 125.544 37.507 124.24 37.3056C123.162 37.1357 122.186 36.3866 121.171 34.9515C118.827 31.6305 120.074 30.2881 122.581 27.5897L122.601 27.5679C123.113 27.0198 123.872 26.3151 124.743 25.5068L124.801 25.4529Z" fill="#231F20"/>
<path d="M156.464 26.0009C154.114 28.1096 148.903 26.3534 143.83 22.0668C142.53 20.9703 141.309 19.784 140.175 18.5166C139.061 17.2728 138.034 15.9542 137.1 14.5699C133.32 9.01812 132.141 3.64255 134.511 1.52128C137.434 -1.10356 144.731 2.24516 150.799 9.00553C156.867 15.7659 159.401 23.3697 156.464 26.0009Z" fill="#7C5DFA"/>
<path fill-rule="evenodd" clip-rule="evenodd" d="M134.07 1.06159C134.927 0.333647 136.027 -0.0440598 137.151 0.00409814C141.033 0.00409814 146.553 3.3717 151.253 8.55842C154.024 11.5299 156.181 15.0188 157.599 18.8249C158.777 22.2869 158.506 24.9936 156.887 26.4413C156.027 27.1844 154.916 27.5716 153.78 27.524C150.963 27.524 147.183 25.6985 143.402 22.5513C140.788 20.3226 138.486 17.7523 136.559 14.9096C132.507 8.9298 131.505 3.35911 134.07 1.06159ZM150.781 9.01163C146.118 3.81861 140.724 0.633555 137.151 0.633555C136.191 0.591662 135.25 0.908032 134.511 1.52109C132.142 3.64236 133.32 9.01793 137.101 14.5697C138.03 15.9557 139.053 17.2765 140.163 18.5227C141.297 19.7901 142.518 20.9764 143.818 22.0729C147.454 25.132 151.127 26.9008 153.793 26.9008C154.76 26.9463 155.709 26.6273 156.452 26.007C159.401 23.3759 156.855 15.772 150.781 9.01163Z" fill="#231F20"/>
<path d="M148.021 16.8295L143.83 22.0665C142.53 20.9701 141.309 19.7838 140.176 18.5164C139.061 17.2726 138.034 15.9539 137.101 14.5697L143.162 10.8496L148.021 16.8295Z" fill="white"/>
<ellipse cx="145.58" cy="13.8611" rx="1.79509" ry="3.85392" transform="rotate(-39.4 145.58 13.8611)" fill="#231F20"/>
<path fill-rule="evenodd" clip-rule="evenodd" d="M143.937 15.1866C145.053 16.5463 146.389 17.3457 147.378 17.3457C147.676 17.3503 147.966 17.255 148.203 17.075C149.117 16.3197 148.67 14.318 147.183 12.5114C146.583 11.7337 145.825 11.0921 144.958 10.6294C144.114 10.2517 143.395 10.2454 142.923 10.6294C142.45 11.0133 142.318 11.7246 142.551 12.631C142.83 13.5701 143.302 14.4405 143.937 15.1866ZM143.32 11.1141C143.452 11.0156 143.615 10.9666 143.78 10.9756C144.088 10.9948 144.388 11.0785 144.662 11.2211C145.455 11.6341 146.153 12.2088 146.71 12.908C148.033 14.5194 148.355 16.1371 147.813 16.584C147.271 17.031 145.746 16.4015 144.423 14.7901C143.844 14.1155 143.414 13.326 143.162 12.4737C142.998 11.8316 143.055 11.3344 143.32 11.1141Z" fill="#231F20"/>
<path d="M142.866 38.9111C142.811 38.9114 142.756 38.8962 142.709 38.867C142.636 38.8262 142.583 38.7576 142.561 38.677C142.54 38.5963 142.552 38.5104 142.595 38.439C142.987 37.7985 143.471 37.2195 144.032 36.7206C144.115 36.6327 144.241 36.6002 144.357 36.637C144.472 36.6739 144.556 36.7735 144.573 36.8934C144.59 37.0132 144.536 37.132 144.435 37.1989C143.946 37.6593 143.522 38.1845 143.175 38.76C143.11 38.8657 142.99 38.9246 142.866 38.9111V38.9111Z" fill="#231F20"/>
<path d="M140.932 38.2436H140.881C140.799 38.2269 140.727 38.1784 140.681 38.1087C140.635 38.0391 140.619 37.954 140.636 37.8722C140.863 36.9738 141.395 36.182 142.142 35.6313C142.281 35.527 142.478 35.5552 142.583 35.6943C142.687 35.8333 142.659 36.0306 142.52 36.1349C141.902 36.5946 141.458 37.2488 141.259 37.9918C141.226 38.1441 141.088 38.2503 140.932 38.2436Z" fill="#231F20"/>
<path d="M145.393 38.6907C145.33 38.6912 145.268 38.6713 145.217 38.6341C145.148 38.5859 145.101 38.5123 145.087 38.4295C145.073 38.3468 145.092 38.2618 145.141 38.1935L145.569 37.564C145.674 37.4268 145.866 37.3938 146.01 37.4885C146.151 37.5908 146.184 37.7859 146.086 37.9291L145.651 38.5585C145.593 38.6437 145.496 38.6935 145.393 38.6907V38.6907Z" fill="#231F20"/>
<path d="M125.506 37.3369C125.438 37.3374 125.372 37.3152 125.317 37.274C122.532 35.159 120.806 32.5908 120.465 30.0478V29.9786C120.424 29.8414 120.481 29.694 120.604 29.6198C120.674 29.5736 120.761 29.5583 120.843 29.5773C120.925 29.5963 120.996 29.6481 121.039 29.7205C121.076 29.7972 121.098 29.8807 121.102 29.966C121.423 32.3453 123.055 34.7624 125.714 36.7704C125.824 36.8524 125.868 36.9955 125.823 37.1247C125.779 37.254 125.656 37.3397 125.519 37.3369H125.506Z" fill="white"/>
<path d="M123.95 27.2913C123.862 27.2901 123.78 27.251 123.723 27.1843C123.664 27.1262 123.63 27.0468 123.63 26.9639C123.63 26.8811 123.664 26.8017 123.723 26.7436L127.113 23.5964C127.17 23.5355 127.25 23.501 127.334 23.501C127.417 23.501 127.497 23.5355 127.554 23.5964C127.613 23.6544 127.647 23.7338 127.647 23.8167C127.647 23.8996 127.613 23.979 127.554 24.037L124.164 27.1843C124.111 27.2479 124.033 27.2866 123.95 27.2913Z" fill="white"/>
<path d="M124.416 28.0466C124.328 28.0444 124.245 28.0083 124.183 27.9459C124.062 27.8214 124.062 27.6235 124.183 27.499L127.573 24.3517C127.696 24.2317 127.892 24.2317 128.014 24.3517C128.074 24.4108 128.107 24.4912 128.107 24.5751C128.107 24.6591 128.074 24.7395 128.014 24.7986L124.63 27.9459C124.574 28.0045 124.497 28.0403 124.416 28.0466V28.0466Z" fill="white"/>
<path d="M124.952 28.9149C124.865 28.917 124.782 28.88 124.725 28.8141C124.666 28.7561 124.632 28.6767 124.632 28.5938C124.632 28.5109 124.666 28.4315 124.725 28.3735L128.115 25.2262C128.172 25.1654 128.252 25.1309 128.336 25.1309C128.419 25.1309 128.499 25.1654 128.556 25.2262C128.615 25.2842 128.649 25.3637 128.649 25.4465C128.649 25.5294 128.615 25.6088 128.556 25.6669L125.166 28.8141C125.112 28.876 125.034 28.9125 124.952 28.9149V28.9149Z" fill="white"/>
<path d="M68.8707 77.4654L67.2891 112.35C67.2891 112.35 88.8708 112.608 101.284 107.428C102.302 104.102 103.531 100.846 104.964 97.6773C106.785 94.0013 114.605 88.5817 112.148 74.507C112.148 74.507 130.572 86.152 135.765 80.8016C140.957 75.4512 143.553 50.4617 143.553 50.4617L132.765 46.9997L127.863 62.4088C127.863 62.4088 96.7726 47.3837 89.5262 45.4827C86.8355 44.7777 78.4738 49.2217 68.8896 55.3715" fill="#7C5DFA"/>
<path d="M88.8582 55.9443C88.8582 55.9443 93.855 71.4542 94.712 78.0194C95.569 84.5846 95.695 95.4365 95.695 95.4365C95.695 95.4365 103.603 71.2401 102.626 56.2968L88.8582 55.9443Z" fill="#231F20"/>
<path fill-rule="evenodd" clip-rule="evenodd" d="M95.6573 95.7194H95.6951C95.8189 95.7221 95.9295 95.6424 95.9661 95.5242C96.0417 95.3039 103.874 71.1013 102.897 56.2776C102.891 56.133 102.771 56.0193 102.627 56.0195L88.8646 55.667C88.775 55.6672 88.6907 55.7096 88.6373 55.7816C88.5839 55.8535 88.5677 55.9464 88.5936 56.0321C88.5939 56.0331 88.5944 56.0346 88.5951 56.0368C88.7052 56.3799 93.5958 71.6324 94.4349 78.0631C95.2793 84.5339 95.4179 95.3417 95.4179 95.4487C95.4197 95.5857 95.5215 95.7007 95.6573 95.7194ZM94.9894 77.9813C94.2143 72.0329 90.0051 58.638 89.2427 56.2335L102.362 56.5797C103.093 69.0618 97.6611 88.0526 95.9409 93.7177C95.8653 90.3879 95.6195 82.9288 94.9894 77.9813Z" fill="#231F20"/>
<path d="M63.6848 130.869H123.238L101.303 107.428L67.308 112.35C67.308 112.35 63.2374 121.553 63.6218 128.011C63.647 128.773 63.6659 129.748 63.6848 130.869Z" fill="#231F20"/>
<path fill-rule="evenodd" clip-rule="evenodd" d="M63.6847 131.183H123.238H123.244C123.37 131.184 123.484 131.11 123.535 130.995C123.585 130.88 123.563 130.746 123.477 130.654L101.543 107.213C101.471 107.138 101.368 107.1 101.265 107.113L67.2386 112.035C67.1338 112.053 67.0446 112.121 66.9991 112.218C66.829 112.602 62.9033 121.565 63.2877 128.03C63.3318 128.804 63.3696 129.817 63.3696 130.875C63.3696 130.958 63.403 131.037 63.4623 131.095C63.5215 131.153 63.6017 131.185 63.6847 131.183ZM122.507 130.554H64.006C64.006 129.681 63.9689 128.851 63.9384 128.171C63.9357 128.11 63.933 128.05 63.9304 127.992C63.5776 122.144 66.9865 113.892 67.5221 112.633L101.183 107.761L122.507 130.554Z" fill="#231F20"/>
<path d="M100.913 47.6036L102.62 56.2964C102.62 56.2964 102.664 61.3321 97.0814 60.8474C93.7408 60.5341 90.7197 58.7327 88.8583 55.9439L86.5962 40.7614C86.7909 37.997 86.5657 35.219 85.9282 32.5218C92.3492 31.1937 96.4954 25.3838 96.4954 25.3838C96.4954 25.3838 99.3373 28.2793 100.497 29.1605C101.43 29.7989 102.277 30.5541 103.017 31.4077C104.233 32.9121 104.593 35.0145 104.908 36.8714C105.304 39.0754 105.5 41.3107 105.494 43.5499C105.393 47.7988 100.913 47.6036 100.913 47.6036Z" fill="white"/>
<path fill-rule="evenodd" clip-rule="evenodd" d="M97.0562 61.1685H97.8061C99.0839 61.2333 100.339 60.8103 101.316 59.9851C102.293 58.9999 102.845 57.6711 102.853 56.2839L101.209 47.931C102.406 47.8917 103.554 47.4479 104.466 46.6721C105.303 45.8621 105.76 44.7384 105.727 43.5752C105.734 41.3189 105.535 39.0667 105.134 36.8463C104.832 35.0271 104.448 32.8366 103.187 31.2504C102.447 30.3837 101.6 29.6138 100.667 28.9592C99.8175 28.3229 98.0283 26.5429 97.1698 25.6889C96.8819 25.4025 96.6987 25.2202 96.6907 25.2202C96.6333 25.1566 96.5492 25.124 96.4639 25.1321C96.3785 25.1391 96.3004 25.1827 96.2497 25.2517C96.2119 25.3083 92.0971 31.0175 85.8652 32.2764C85.79 32.2925 85.7242 32.3378 85.6825 32.4023C85.639 32.4646 85.6251 32.5429 85.6447 32.6163C86.2336 35.0584 86.4586 37.574 86.3126 40.0817C86.2874 40.3349 86.2874 40.5901 86.3126 40.8433C86.3189 40.9189 88.5747 56.0258 88.5747 56.0258C88.5817 56.0633 88.5944 56.0994 88.6126 56.1329C90.5144 59.0064 93.6217 60.8595 97.0562 61.1685ZM97.1066 60.5642C93.8812 60.2464 90.9624 58.5177 89.1356 55.8433C86.8986 40.8685 86.9238 40.7111 86.9238 40.7111C86.9069 40.5017 86.9069 40.2912 86.9238 40.0817C87.0693 37.6197 86.857 35.1497 86.2937 32.7485C91.8703 31.4896 95.6447 26.989 96.5458 25.8245C97.2327 26.5421 99.3436 28.6445 100.327 29.3809C101.228 30.0085 102.047 30.7466 102.765 31.5777C103.926 32.9942 104.264 34.9732 104.565 36.7394C104.574 36.7941 104.583 36.8486 104.593 36.9029C104.988 39.0901 105.184 41.3086 105.179 43.5311C105.213 44.5316 104.832 45.5018 104.126 46.2126C103.223 46.9464 102.089 47.3367 100.925 47.3142C100.836 47.307 100.748 47.3447 100.692 47.4149C100.638 47.4843 100.615 47.5733 100.629 47.6604L102.33 56.2965C102.301 57.5058 101.814 58.6592 100.969 59.5256C100.068 60.3565 98.7702 60.7027 97.1066 60.5642Z" fill="#231F20"/>
<path d="M101.675 51.8837C101.675 51.8837 98.1715 52.7083 95.4493 50.7885C92.7272 48.8686 92.6138 46.4326 92.6138 46.4326C92.6138 46.4326 96.9238 48.2643 100.913 47.6034L101.675 51.8837Z" fill="#231F20"/>
<path fill-rule="evenodd" clip-rule="evenodd" d="M95.2918 51.0157C96.6356 51.9149 98.2242 52.3786 99.8413 52.3438C100.487 52.3528 101.132 52.2895 101.763 52.155C101.91 52.1234 102.005 51.9812 101.977 51.834L101.209 47.5537C101.183 47.405 101.043 47.3043 100.894 47.3271C97.3528 47.9166 93.4826 46.4524 92.8388 46.2089C92.7814 46.1872 92.7497 46.1751 92.7461 46.1751C92.6586 46.1373 92.5575 46.1493 92.4814 46.2066C92.4 46.2579 92.3539 46.35 92.3617 46.4458C92.3617 46.5843 92.4877 49.0392 95.2918 51.0157ZM95.632 50.5625C94.3251 49.6991 93.3845 48.3828 92.9918 46.8676C94.1638 47.3082 97.4657 48.3657 100.711 47.9187L101.379 51.664C100.541 51.8214 97.806 52.0983 95.632 50.5625Z" fill="#231F20"/>
<path d="M96.2622 32.7803C96.2622 32.7803 99.8602 36.4311 99.3309 37.2809C98.8016 38.1307 96.8482 38.0111 96.8482 38.0111" fill="white"/>
<path d="M97.1506 38.2938H96.8293C96.7557 38.2889 96.687 38.255 96.6386 38.1995C96.5901 38.1439 96.5657 38.0714 96.5709 37.9979C96.581 37.8439 96.7127 37.7263 96.8671 37.7335C97.3649 37.7335 98.7574 37.7335 99.0977 37.1418C99.312 36.7894 97.9005 34.8443 96.0668 32.9811C95.9589 32.8716 95.9603 32.6955 96.07 32.5877C96.1796 32.48 96.3559 32.4814 96.4638 32.5909C97.5917 33.7365 100.15 36.4998 99.5703 37.4377C99.0914 38.1993 97.7745 38.2938 97.1506 38.2938Z" fill="#231F20"/>
<ellipse cx="101.032" cy="33.8698" rx="0.5" ry="0.919057" transform="rotate(-13.01 101.032 33.8698)" fill="#231F20"/>
<ellipse cx="93.0044" cy="34.6852" rx="0.5" ry="0.919057" transform="rotate(-13.01 93.0044 34.6852)" fill="#231F20"/>
<path d="M88.6566 35.7508C87.7807 34.3346 85.7328 34.1394 84.3024 34.7122C83.3317 35.0591 82.6703 35.9617 82.6326 36.9909C82.6216 37.6087 82.7329 38.2227 82.9602 38.7974C83.3408 39.8749 83.9129 40.875 84.649 41.7496C84.992 42.2071 85.4449 42.5708 85.9659 42.8071C86.6373 43.0439 87.3854 42.8496 87.8563 42.3161" fill="white"/>
<path d="M86.5584 43.2096C86.3211 43.2094 86.0859 43.1645 85.8652 43.0774C85.3 42.8212 84.8066 42.4299 84.4285 41.9381C83.6723 41.0362 83.0833 40.0066 82.6894 38.8978C82.4489 38.2846 82.3312 37.6302 82.3428 36.9717C82.3925 35.8349 83.1242 34.8405 84.1954 34.4538C85.7707 33.8244 87.9761 34.0762 88.9024 35.6057C88.9683 35.7397 88.9215 35.9018 88.7942 35.98C88.6669 36.0583 88.501 36.027 88.4109 35.9079C87.6233 34.649 85.7644 34.4412 84.4096 34.9826C83.5449 35.2888 82.952 36.0877 82.9099 37.0031C82.9014 37.5843 83.0063 38.1616 83.2187 38.7027C83.5887 39.7477 84.1436 40.7178 84.857 41.5667C85.1714 41.9847 85.585 42.3178 86.0606 42.5361C86.6302 42.7361 87.2643 42.569 87.6611 42.1143C87.729 42.0246 87.8428 41.9823 87.9529 42.0058C88.063 42.0293 88.1495 42.1144 88.1748 42.224C88.2 42.3337 88.1594 42.448 88.0707 42.5172C87.6792 42.9403 87.1348 43.1896 86.5584 43.2096V43.2096Z" fill="#231F20"/>
<path d="M99.791 39.1436L95.5754 39.5527C95.5754 39.5527 96.4513 46.0613 98.348 45.885C100.245 45.7088 100.251 41.0067 99.791 39.1436Z" fill="white"/>
<path fill-rule="evenodd" clip-rule="evenodd" d="M95.298 39.5905C95.4429 40.7046 96.281 46.1683 98.2659 46.1683L98.373 46.162C98.8343 46.1083 99.2465 45.8492 99.4946 45.457C100.541 43.9904 100.421 40.5221 100.062 39.0743C100.028 38.9414 99.9022 38.8531 99.7656 38.8666L95.5438 39.2757C95.4678 39.2811 95.3983 39.3204 95.3547 39.3828C95.3048 39.4396 95.2839 39.5162 95.298 39.5905ZM98.2659 45.6081C97.1506 45.6081 96.2432 42.1838 95.8903 39.8045L99.5766 39.4709C99.9042 41.0571 99.8664 43.9715 99.041 45.136C98.8841 45.3926 98.6206 45.5657 98.3226 45.6081H98.2659Z" fill="#231F20"/>
<path d="M110.339 89.6139C110.236 89.6138 110.141 89.5576 110.091 89.4673C110.041 89.377 110.045 89.2668 110.1 89.1796C110.144 89.0978 114.775 81.3177 110.345 65.1155C110.309 64.9632 110.397 64.8086 110.547 64.763C110.621 64.7419 110.7 64.7513 110.766 64.7893C110.832 64.8272 110.881 64.8904 110.9 64.9644C115.405 81.431 110.786 89.1607 110.585 89.5132C110.525 89.5864 110.433 89.6243 110.339 89.6139Z" fill="#231F20"/>
<path d="M24.6421 67.0977L92.6703 116.126L160.699 67.0977V147.53H24.6421V67.0977V67.0977Z" fill="white"/>
<path fill-rule="evenodd" clip-rule="evenodd" d="M24.3272 147.53C24.3272 147.704 24.4683 147.845 24.6423 147.845H160.699C160.871 147.842 161.01 147.703 161.014 147.53V67.0984C161.013 66.9799 160.945 66.8722 160.837 66.8214C160.737 66.7587 160.61 66.7587 160.51 66.8214L92.6705 115.711L24.825 66.8214C24.7248 66.7587 24.5975 66.7587 24.4973 66.8214C24.3915 66.8728 24.3252 66.9809 24.3272 67.0984V147.53ZM160.415 147.216H24.9384V67.7152L92.4815 116.379C92.5922 116.459 92.7425 116.459 92.8532 116.379L160.415 67.7152V147.216Z" fill="#231F20"/>
<path d="M24.6421 147.845C24.5266 147.846 24.4203 147.783 24.3648 147.682C24.2834 147.53 24.3363 147.341 24.4846 147.254L86.7283 111.683C86.8797 111.598 87.0713 111.652 87.1567 111.803C87.1998 111.874 87.2121 111.96 87.1907 112.04C87.1693 112.121 87.1162 112.19 87.0433 112.231L24.7933 147.801C24.7474 147.828 24.6954 147.843 24.6421 147.845Z" fill="#231F20"/>
<path d="M160.699 147.845C160.643 147.843 160.589 147.828 160.541 147.801L98.2975 112.23C98.1464 112.145 98.0928 111.954 98.1778 111.802C98.2655 111.654 98.4545 111.601 98.6063 111.683L160.85 147.253C161.001 147.339 161.055 147.53 160.97 147.681C160.916 147.782 160.812 147.844 160.699 147.845V147.845Z" fill="#231F20"/>
<path d="M57.0748 110.638C57.0748 110.638 59.8285 117.801 60.4775 118.191C61.1265 118.581 68.7952 121.716 68.2469 123.183C67.6987 124.649 64.2457 122.862 64.2457 122.862C64.2457 122.862 69.2173 128.609 67.9067 129.622C66.596 130.636 62.1851 132.694 60.4145 131.857C58.6438 131.02 49.8158 120.092 47.9443 115.346" fill="white"/>
<path d="M61.4855 132.386C61.0747 132.398 60.6661 132.321 60.2883 132.159C58.3979 131.259 49.5131 120.199 47.6543 115.478C47.6138 115.373 47.6328 115.253 47.7041 115.166C47.7755 115.078 47.8884 115.034 48.0003 115.052C48.1122 115.07 48.2061 115.146 48.2466 115.252C50.137 120.092 59.0217 130.862 60.5529 131.618C62.0841 132.373 66.3879 130.459 67.7237 129.421C67.7818 129.367 67.8158 129.292 67.8183 129.213C67.938 127.954 65.1087 124.385 64.0375 123.114C63.9386 122.999 63.935 122.831 64.0289 122.713C64.1229 122.594 64.2878 122.559 64.4219 122.629C65.052 122.956 66.8542 123.737 67.6607 123.428C67.8104 123.378 67.9287 123.262 67.9821 123.114C68.1333 122.705 67.1377 121.679 61.5233 119.079C60.8428 118.764 60.4836 118.594 60.3387 118.5C59.6582 118.065 57.4653 112.476 56.81 110.776C56.7793 110.698 56.7814 110.611 56.8157 110.534C56.8501 110.457 56.9138 110.397 56.9927 110.367C57.1545 110.308 57.3342 110.389 57.396 110.55C58.7067 113.955 60.2946 117.663 60.6853 117.977C60.7924 118.047 61.2524 118.261 61.788 118.506C66.3123 120.596 69.0218 122.138 68.5744 123.334C68.457 123.652 68.206 123.903 67.8876 124.02C67.0379 124.193 66.1552 124.092 65.3671 123.731C66.5832 125.248 68.5933 127.973 68.4673 129.27C68.4466 129.516 68.326 129.744 68.1333 129.899C67.0936 130.686 63.7414 132.386 61.4855 132.386Z" fill="#231F20"/>
<path d="M68.8893 55.3965C52.6825 65.7951 32.9722 81.0972 31.3087 84.6725C28.6496 90.3377 48.5363 118.827 48.5363 118.827L59.3051 112.004L49.4626 90.6461L68.8704 77.459" fill="#7C5DFA"/>
<path d="M56.4447 86.2398C56.3499 86.2425 56.26 86.1976 56.2053 86.1202C56.1169 85.989 56.1474 85.8116 56.2746 85.7174L78.0643 70.4782C78.1264 70.4324 78.2046 70.4139 78.2807 70.4269C78.3568 70.44 78.4243 70.4835 78.4676 70.5474C78.5111 70.6109 78.5276 70.689 78.5134 70.7645C78.4992 70.8401 78.4555 70.9069 78.392 70.9503L56.6086 86.1895C56.561 86.2239 56.5034 86.2417 56.4447 86.2398V86.2398Z" fill="#231F20"/>
<path d="M151.121 129.427L177.529 113.281L155.154 122.591L151.121 129.427V129.427Z" fill="#231F20"/>
<path fill-rule="evenodd" clip-rule="evenodd" d="M150.9 129.647C150.958 129.707 151.037 129.741 151.121 129.742C151.18 129.732 151.236 129.709 151.285 129.673L177.712 113.552C177.853 113.467 177.905 113.288 177.831 113.141C177.756 112.993 177.581 112.929 177.428 112.992L155.027 122.302C154.966 122.328 154.914 122.375 154.883 122.434L150.85 129.263C150.776 129.388 150.797 129.546 150.9 129.647ZM152.034 128.483L155.368 122.818L173.893 115.12L152.034 128.483Z" fill="#231F20"/>
<path d="M155.154 122.591L163.786 127.003L177.529 113.281L155.154 122.591V122.591Z" fill="white"/>
<path fill-rule="evenodd" clip-rule="evenodd" d="M163.654 127.256C163.694 127.278 163.74 127.289 163.786 127.287C163.864 127.292 163.94 127.262 163.994 127.205L177.737 113.483C177.837 113.389 177.853 113.237 177.775 113.124C177.699 113.012 177.555 112.967 177.428 113.017L155.04 122.327C154.938 122.374 154.87 122.473 154.864 122.585C154.858 122.697 154.92 122.801 155.021 122.849L163.654 127.256ZM163.73 126.651L155.834 122.623L176.294 114.106L163.73 126.651Z" fill="#231F20"/>
<path d="M177.529 113.281L149.098 120.067L142.633 116.372L177.529 113.281V113.281Z" fill="white"/>
<path fill-rule="evenodd" clip-rule="evenodd" d="M148.934 120.312C148.976 120.337 149.024 120.35 149.073 120.35L149.142 120.344L177.573 113.565C177.719 113.527 177.812 113.385 177.788 113.237C177.762 113.09 177.628 112.986 177.479 112.998L142.583 116.089C142.459 116.102 142.358 116.192 142.331 116.313C142.304 116.434 142.357 116.559 142.463 116.624L148.934 120.312ZM149.117 119.752L143.547 116.573L173.648 113.936L149.117 119.752Z" fill="#231F20"/>
<path d="M149.098 120.067L151.121 129.427L155.154 122.591L177.529 113.281L149.098 120.067V120.067Z" fill="white"/>
<path fill-rule="evenodd" clip-rule="evenodd" d="M151.077 129.716H151.121C151.232 129.725 151.338 129.668 151.392 129.571L155.374 122.823L177.643 113.551C177.792 113.503 177.874 113.342 177.826 113.193C177.777 113.043 177.616 112.961 177.466 113.01L149.035 119.789C148.962 119.806 148.898 119.851 148.857 119.915C148.817 119.979 148.804 120.056 148.821 120.129L150.837 129.496C150.864 129.611 150.959 129.698 151.077 129.716ZM151.247 128.64L149.438 120.274L174.108 114.389L155.04 122.32C154.983 122.345 154.935 122.387 154.902 122.439L151.247 128.64Z" fill="#231F20"/>
<path d="M145.292 130.73C145.154 130.727 145.034 130.634 144.996 130.501C144.958 130.368 145.012 130.226 145.128 130.151L146.181 129.477C146.327 129.382 146.523 129.423 146.619 129.569C146.714 129.715 146.673 129.911 146.527 130.006L145.462 130.686C145.41 130.715 145.352 130.731 145.292 130.73Z" fill="#D1D3D4"/>
<path fill-rule="evenodd" clip-rule="evenodd" d="M17.9392 111.817C17.9894 111.934 18.1065 112.008 18.2339 112.004C18.3307 112.006 18.4233 111.964 18.486 111.891C19.0531 111.286 19.6391 110.701 20.2692 110.147C20.3289 110.088 20.3624 110.007 20.3624 109.923C20.3624 109.84 20.3289 109.759 20.2692 109.7C20.2112 109.641 20.1317 109.607 20.0487 109.607C19.9657 109.607 19.8862 109.641 19.8281 109.7C19.198 110.267 18.5868 110.846 18.0071 111.475C17.9159 111.564 17.8889 111.7 17.9392 111.817ZM15.0833 115.906C15 115.909 14.9189 115.88 14.8565 115.825C14.788 115.778 14.7415 115.705 14.7272 115.623C14.713 115.542 14.7323 115.458 14.7808 115.39C15.2597 114.698 15.7764 114.012 16.3057 113.357C16.4158 113.224 16.6126 113.204 16.7468 113.313C16.882 113.421 16.9045 113.618 16.7972 113.754C16.2742 114.383 15.7701 115.069 15.2975 115.749C15.2482 115.835 15.1622 115.893 15.0644 115.906H15.0833ZM12.336 120.231C12.3946 120.253 12.4587 120.255 12.5187 120.237L12.4998 120.231C12.6032 120.229 12.6994 120.177 12.7581 120.092C13.1236 119.35 13.5206 118.613 13.9491 117.902C14.0357 117.75 13.9853 117.557 13.8357 117.468C13.7641 117.424 13.6782 117.412 13.5974 117.434C13.5167 117.455 13.448 117.508 13.4072 117.581C12.9724 118.311 12.5628 119.06 12.191 119.809C12.1541 119.884 12.1486 119.971 12.1758 120.05C12.203 120.129 12.2607 120.194 12.336 120.231ZM10.6283 124.895C10.5971 124.901 10.565 124.901 10.5338 124.895C10.4533 124.87 10.386 124.815 10.3469 124.74C10.3079 124.666 10.3003 124.579 10.3259 124.499C10.5716 123.705 10.8615 122.9 11.1828 122.107C11.2589 121.963 11.4314 121.901 11.5814 121.963C11.7314 122.025 11.8098 122.191 11.7625 122.346C11.4538 123.12 11.1702 123.907 10.9245 124.687C10.8827 124.814 10.7622 124.899 10.6283 124.895ZM9.4878 129.799H9.53191C9.6941 129.796 9.82772 129.671 9.84067 129.509C9.94779 128.697 10.099 127.872 10.2818 127.06C10.3005 126.979 10.2858 126.893 10.2408 126.822C10.1959 126.751 10.1244 126.701 10.0423 126.683C9.87229 126.647 9.70485 126.753 9.66424 126.922C9.4752 127.772 9.33027 128.615 9.21685 129.44C9.19432 129.613 9.31476 129.773 9.4878 129.799ZM140.944 133.305C140.803 133.303 140.68 133.208 140.643 133.072C140.607 132.935 140.665 132.791 140.787 132.719C141.6 132.253 142.331 131.832 142.961 131.46C143.033 131.417 143.119 131.403 143.201 131.423C143.282 131.443 143.352 131.495 143.396 131.567C143.483 131.717 143.436 131.91 143.288 132.002C142.658 132.379 141.921 132.807 141.102 133.261C141.059 133.285 141.012 133.3 140.963 133.305H140.944ZM8.9963 134.52C9.00632 134.686 9.14448 134.816 9.31137 134.815H9.33027C9.41388 134.81 9.49212 134.773 9.54769 134.71C9.60326 134.647 9.63159 134.565 9.62643 134.482C9.58862 134.003 9.58862 133.512 9.58862 133.028V132.002C9.59203 131.918 9.56207 131.837 9.50533 131.775C9.44859 131.714 9.36974 131.678 9.28616 131.674C9.20213 131.669 9.11964 131.699 9.05778 131.756C8.99592 131.813 8.96006 131.892 8.9585 131.976V133.028C8.9585 133.277 8.96801 133.528 8.97749 133.778C8.98691 134.027 8.9963 134.275 8.9963 134.52ZM136.534 135.741C136.418 135.742 136.311 135.679 136.256 135.577C136.176 135.424 136.232 135.234 136.382 135.149C137.093 134.771 137.766 134.404 138.404 134.057L138.594 133.953C138.693 133.883 138.823 133.876 138.929 133.934C139.035 133.993 139.098 134.107 139.091 134.228C139.084 134.348 139.008 134.454 138.896 134.501C138.203 134.885 137.466 135.287 136.678 135.709C136.639 135.729 136.596 135.74 136.552 135.741H136.534ZM131.776 137.887C131.828 137.996 131.939 138.065 132.06 138.063C132.108 138.063 132.156 138.05 132.198 138.026C132.98 137.635 133.729 137.251 134.448 136.88C134.603 136.8 134.663 136.61 134.583 136.455C134.503 136.3 134.313 136.24 134.158 136.32C133.44 136.697 132.69 137.075 131.915 137.465C131.76 137.544 131.698 137.732 131.776 137.887ZM10.1557 139.744C10.0139 139.743 9.89014 139.648 9.85327 139.511C9.62254 138.693 9.43742 137.863 9.29876 137.025C9.27092 136.851 9.38941 136.687 9.56342 136.66C9.73742 136.632 9.90105 136.75 9.92889 136.924C10.0548 137.747 10.2273 138.563 10.4456 139.366C10.469 139.446 10.4596 139.533 10.4194 139.606C10.3792 139.679 10.3116 139.733 10.2313 139.757L10.1557 139.744ZM127.264 140.09C127.315 140.2 127.427 140.27 127.548 140.266C127.593 140.267 127.638 140.259 127.68 140.241L129.955 139.146C130.112 139.07 130.176 138.881 130.1 138.724C130.023 138.568 129.834 138.503 129.678 138.58C128.947 138.938 128.191 139.303 127.409 139.668C127.334 139.705 127.276 139.77 127.249 139.849C127.222 139.928 127.227 140.015 127.264 140.09ZM122.967 142.369C122.844 142.367 122.732 142.297 122.677 142.186C122.642 142.11 122.639 142.022 122.67 141.944C122.701 141.865 122.763 141.803 122.841 141.771L123.113 141.648L123.345 141.544C123.951 141.271 124.545 141.004 125.128 140.732C125.287 140.659 125.474 140.728 125.547 140.886C125.62 141.045 125.551 141.232 125.393 141.305C124.643 141.651 123.881 141.997 123.093 142.344C123.053 142.362 123.01 142.37 122.967 142.369ZM12.0587 144.408C11.9429 144.41 11.8358 144.347 11.7815 144.245C11.3697 143.501 11.0015 142.734 10.6787 141.947C10.636 141.843 10.6523 141.723 10.7216 141.634C10.7908 141.545 10.9025 141.499 11.0146 141.514C11.1266 141.53 11.222 141.603 11.2648 141.708C11.5744 142.475 11.9322 143.221 12.336 143.942C12.4163 144.096 12.3606 144.285 12.2099 144.371C12.1632 144.395 12.1114 144.408 12.0587 144.408ZM113.365 146.138C113.439 146.225 113.554 146.267 113.666 146.246V146.253C113.707 146.252 113.747 146.246 113.786 146.234L116.13 145.277C116.29 145.208 116.366 145.023 116.3 144.861C116.233 144.702 116.051 144.626 115.891 144.692L113.553 145.617C113.44 145.637 113.347 145.716 113.308 145.823C113.27 145.931 113.291 146.051 113.365 146.138ZM14.7304 148.386C14.7919 148.454 14.8786 148.493 14.9699 148.493V148.5C15.0564 148.504 15.1407 148.472 15.203 148.412C15.3239 148.287 15.3239 148.089 15.203 147.965C14.6495 147.351 14.132 146.706 13.6529 146.032C13.5922 145.93 13.479 145.87 13.3601 145.879C13.2413 145.887 13.1373 145.961 13.0913 146.071C13.0452 146.181 13.0651 146.307 13.1425 146.397C13.6341 147.09 14.1643 147.754 14.7304 148.386ZM104.202 149.689C104.028 149.717 103.864 149.599 103.836 149.425C103.808 149.251 103.927 149.088 104.101 149.06C104.901 148.789 105.695 148.519 106.477 148.242C106.642 148.187 106.82 148.273 106.88 148.437C106.908 148.514 106.904 148.6 106.868 148.675C106.833 148.749 106.769 148.806 106.691 148.833C105.903 149.11 105.109 149.387 104.303 149.658L104.202 149.689ZM18.6813 151.874C18.6131 151.874 18.5466 151.852 18.4923 151.811C17.8054 151.301 17.1438 150.76 16.5263 150.199C16.4666 150.14 16.4331 150.06 16.4331 149.976C16.4331 149.892 16.4666 149.811 16.5263 149.752C16.5844 149.693 16.6639 149.66 16.7468 149.66C16.8298 149.66 16.9093 149.693 16.9674 149.752C17.5813 150.309 18.2227 150.834 18.8893 151.326C19.0285 151.43 19.0567 151.628 18.9523 151.767C18.8843 151.844 18.7836 151.883 18.6813 151.874ZM94.29 152.459C94.3264 152.592 94.446 152.684 94.5828 152.686H94.5798C94.6139 152.69 94.6485 152.685 94.6806 152.673C95.4935 152.446 96.3001 152.207 97.1003 151.968C97.1815 151.946 97.2503 151.892 97.2907 151.819C97.3312 151.745 97.3398 151.658 97.3146 151.578C97.2631 151.413 97.0891 151.321 96.9239 151.37L94.5105 152.069C94.3432 152.118 94.2454 152.291 94.29 152.459ZM22.7897 154.48C22.8346 154.503 22.8841 154.516 22.9347 154.517V154.53C23.1087 154.57 23.2822 154.461 23.3222 154.288C23.3622 154.114 23.2536 153.94 23.0796 153.9C22.3297 153.517 21.5988 153.107 20.912 152.686C20.8415 152.639 20.7551 152.624 20.673 152.643C20.5909 152.662 20.5202 152.714 20.4772 152.786C20.4327 152.857 20.4184 152.943 20.4373 153.024C20.4562 153.106 20.5069 153.177 20.578 153.221C21.2837 153.668 22.0273 154.089 22.7897 154.48ZM84.8066 155.191C84.694 155.203 84.5834 155.155 84.5164 155.063C84.4494 154.972 84.4362 154.852 84.4817 154.749C84.5273 154.645 84.6247 154.574 84.7373 154.561C85.5564 154.373 86.3693 154.184 87.1821 153.982C87.3508 153.943 87.5197 154.047 87.5602 154.215C87.5811 154.297 87.5681 154.384 87.5243 154.456C87.4804 154.528 87.4094 154.58 87.3271 154.599L87.3265 154.599L87.3259 154.599L87.3253 154.6L87.3247 154.6L87.3241 154.6L87.3235 154.6L87.3229 154.6L87.3223 154.6L87.3217 154.6L87.3211 154.601L87.3205 154.601L87.3199 154.601L87.3193 154.601L87.3187 154.601L87.3181 154.601L87.3176 154.601L87.317 154.602L87.3164 154.602L87.3158 154.602L87.3152 154.602L87.3146 154.602L87.314 154.602L87.3134 154.602L87.3128 154.602C86.5047 154.797 85.6966 154.991 84.8759 155.172L84.8066 155.191ZM27.5787 156.488C27.5453 156.494 27.5112 156.494 27.4779 156.488C26.6713 156.204 25.871 155.896 25.1086 155.575C25.0315 155.542 24.9709 155.479 24.9401 155.401C24.9094 155.323 24.9111 155.236 24.9448 155.159C25.0139 155.003 25.196 154.93 25.3543 154.996C26.1042 155.31 26.8918 155.625 27.6858 155.896C27.8598 155.925 27.9769 156.09 27.9473 156.264C27.9177 156.438 27.7527 156.555 27.5787 156.525V156.488ZM74.649 156.916C74.6739 157.066 74.8051 157.176 74.9577 157.174H75.0144L77.4971 156.727C77.6673 156.695 77.7798 156.532 77.7492 156.362C77.7355 156.279 77.6888 156.206 77.6199 156.158C77.551 156.111 77.4658 156.093 77.3837 156.11L74.9073 156.551C74.7366 156.582 74.6222 156.744 74.649 156.916ZM32.4243 157.898H32.3487C31.5107 157.702 30.6852 157.488 29.8975 157.268C29.7328 157.217 29.6382 157.044 29.6833 156.878C29.732 156.711 29.9069 156.615 30.074 156.664C30.8553 156.884 31.6682 157.098 32.4936 157.293C32.5755 157.311 32.6465 157.361 32.6905 157.433C32.7344 157.504 32.7475 157.59 32.7268 157.671C32.684 157.807 32.5546 157.898 32.4117 157.891L32.4243 157.898ZM69.671 157.69C69.6956 157.845 69.8289 157.959 69.9861 157.96L70.005 157.954L72.5255 157.583C72.6084 157.569 72.6823 157.523 72.7308 157.454C72.7793 157.386 72.7984 157.3 72.7838 157.218C72.7715 157.135 72.7264 157.062 72.6587 157.013C72.5911 156.964 72.5067 156.945 72.4246 156.96L69.9419 157.331C69.858 157.342 69.782 157.386 69.731 157.454C69.6801 157.521 69.6584 157.606 69.671 157.69ZM64.9892 158.59C64.8766 158.597 64.769 158.543 64.7069 158.449C64.6447 158.355 64.6375 158.235 64.688 158.134C64.7384 158.033 64.8388 157.967 64.9514 157.96C65.7915 157.868 66.6317 157.767 67.4719 157.658C67.6459 157.636 67.8053 157.758 67.8279 157.932C67.8505 158.106 67.7278 158.265 67.5538 158.288L65.0333 158.584L64.9892 158.59ZM37.3204 158.817H37.3519C37.5063 158.809 37.6333 158.693 37.6544 158.54C37.667 158.457 37.6462 158.373 37.5966 158.305C37.5469 158.238 37.4725 158.193 37.3897 158.181C36.5516 158.061 35.7199 157.923 34.9196 157.772C34.8071 157.75 34.6916 157.791 34.6168 157.877C34.542 157.964 34.5192 158.084 34.557 158.192C34.5947 158.3 34.6873 158.38 34.7999 158.401C35.638 158.552 36.476 158.691 37.3204 158.817ZM59.9734 159.075C59.7994 159.075 59.6583 158.934 59.6583 158.76C59.6583 158.586 59.7994 158.445 59.9734 158.445C60.8114 158.376 61.6432 158.3 62.4939 158.219C62.666 158.207 62.8176 158.331 62.8404 158.502C62.8492 158.585 62.8242 158.669 62.771 158.734C62.7177 158.799 62.6406 158.84 62.5569 158.848C61.7167 158.928 60.8766 159.003 60.0364 159.075H59.9734ZM39.8535 159.131C40.679 159.219 41.517 159.295 42.374 159.358H42.4433C42.6173 159.358 42.7584 159.217 42.7584 159.043C42.7584 158.869 42.6173 158.728 42.4433 158.728C41.5674 158.665 40.7357 158.59 39.9228 158.508C39.8395 158.496 39.7548 158.518 39.689 158.571C39.6232 158.624 39.5823 158.701 39.5762 158.785C39.5578 158.957 39.6816 159.112 39.8535 159.131ZM54.945 159.402C54.7793 159.402 54.643 159.272 54.6362 159.106C54.6311 159.023 54.6594 158.94 54.715 158.878C54.7705 158.815 54.8488 158.777 54.9324 158.772C55.7704 158.735 56.6085 158.684 57.4529 158.628C57.5369 158.621 57.6201 158.648 57.6832 158.704C57.7462 158.76 57.7837 158.839 57.7868 158.924C57.7938 159.006 57.7669 159.089 57.7123 159.151C57.6578 159.214 57.5801 159.252 57.497 159.257C56.6589 159.314 55.8209 159.364 54.9765 159.402H54.945ZM45.1632 159.514H45.1633H45.1634H45.1635H45.1636H45.1637H45.1638H45.1639H45.164H45.1641H45.1642H45.1643H45.1644H45.1645H45.1646H45.1648H45.1649H45.165H45.1651L45.1653 159.514C45.8893 159.543 46.6316 159.572 47.3835 159.572H47.3898C47.4761 159.575 47.5601 159.544 47.623 159.485C47.6858 159.425 47.7221 159.343 47.7238 159.257C47.7238 159.174 47.6906 159.094 47.6315 159.035C47.5724 158.976 47.4923 158.942 47.4087 158.942C46.5454 158.93 45.7074 158.905 44.8882 158.873C44.8046 158.87 44.7231 158.9 44.6617 158.956C44.6002 159.013 44.5638 159.092 44.5605 159.175C44.5568 159.348 44.6905 159.493 44.863 159.503L45.1632 159.514ZM49.5889 159.257C49.5923 159.43 49.7314 159.569 49.904 159.572H49.9103L51.4163 159.54L52.4308 159.509C52.5155 159.507 52.5959 159.472 52.654 159.41C52.7121 159.349 52.743 159.266 52.7395 159.182C52.7263 159.011 52.5834 158.879 52.4119 158.88L51.3974 158.911L49.8977 158.942C49.7261 158.946 49.5889 159.086 49.5889 159.257ZM79.5702 155.997C79.6023 156.142 79.7301 156.246 79.879 156.248L79.942 156.242L82.4121 155.726C82.4937 155.709 82.5651 155.661 82.6102 155.591C82.6553 155.521 82.6702 155.436 82.6516 155.355C82.6349 155.273 82.5863 155.201 82.5166 155.155C82.4468 155.109 82.3617 155.092 82.2798 155.109L79.816 155.625C79.7341 155.642 79.6622 155.69 79.6161 155.76C79.57 155.83 79.5535 155.915 79.5702 155.997ZM89.375 153.724C89.3955 153.895 89.5484 154.018 89.7187 154.002C89.7486 154.01 89.78 154.01 89.8098 154.001C90.6289 153.8 91.4418 153.59 92.2483 153.372C92.3609 153.343 92.4493 153.256 92.4802 153.144C92.5112 153.032 92.4799 152.912 92.3983 152.829C92.3167 152.746 92.1971 152.713 92.0845 152.742L89.6522 153.372C89.4782 153.393 89.3541 153.55 89.375 153.724ZM99.1104 151.024C99.1476 151.156 99.2692 151.246 99.4066 151.244V151.25C99.439 151.25 99.4711 151.244 99.5011 151.232C100.314 150.98 101.114 150.728 101.908 150.47C102.073 150.416 102.164 150.239 102.11 150.073C102.085 149.993 102.029 149.926 101.954 149.888C101.879 149.85 101.792 149.844 101.713 149.872C101.495 149.941 101.276 150.011 101.058 150.081C100.481 150.265 99.9032 150.449 99.3183 150.627C99.2378 150.652 99.1705 150.708 99.1315 150.782C99.0924 150.857 99.0848 150.944 99.1104 151.024ZM108.953 148.028C108.821 148.024 108.705 147.942 108.657 147.82C108.598 147.657 108.682 147.476 108.846 147.417C109.39 147.22 109.924 147.021 110.457 146.822L110.458 146.822L110.458 146.822L110.459 146.821C110.71 146.728 110.959 146.635 111.209 146.542C111.364 146.503 111.524 146.587 111.581 146.736C111.637 146.886 111.572 147.055 111.429 147.128C110.648 147.423 109.86 147.713 109.06 148.002C109.028 148.023 108.991 148.033 108.953 148.034V148.028ZM118.052 144.169C118.097 144.289 118.214 144.367 118.342 144.364C118.383 144.365 118.424 144.356 118.462 144.339L120.787 143.357C120.947 143.288 121.02 143.102 120.951 142.942C120.881 142.782 120.695 142.708 120.535 142.778C119.972 143.04 119.4 143.274 118.819 143.512C118.619 143.594 118.418 143.676 118.216 143.76C118.059 143.829 117.986 144.011 118.052 144.169Z" fill="#D1D3D4"/>
<path d="M22.002 108.611C21.906 108.612 21.8151 108.567 21.7563 108.491C21.6498 108.352 21.6751 108.153 21.813 108.045C22.1533 107.793 22.4935 107.541 22.8401 107.295C22.9322 107.224 23.0561 107.209 23.1623 107.257C23.2685 107.305 23.3398 107.407 23.3475 107.523C23.3552 107.639 23.2982 107.75 23.1993 107.812C22.859 108.051 22.525 108.296 22.1974 108.548C22.1411 108.59 22.0724 108.612 22.002 108.611Z" fill="#D1D3D4"/>
<path d="M163.314 71.0003C163.233 71.0027 163.155 70.9706 163.1 70.9121C163.04 70.8541 163.007 70.7747 163.007 70.6918C163.007 70.6089 163.04 70.5295 163.1 70.4715C163.1 70.4715 163.408 70.1442 163.944 69.5525C164.013 69.4515 164.134 69.3995 164.255 69.4191C164.376 69.4388 164.474 69.5265 164.507 69.6441C164.541 69.7618 164.503 69.888 164.41 69.9679C163.868 70.5974 163.553 70.9058 163.553 70.9058C163.491 70.9706 163.404 71.0051 163.314 71.0003Z" fill="#D1D3D4"/>
<path fill-rule="evenodd" clip-rule="evenodd" d="M163.975 13.7892H164.032V13.7703C164.179 13.774 164.308 13.674 164.341 13.5311C164.368 13.3596 164.253 13.1979 164.083 13.166C163.236 13.0212 162.382 12.9245 161.524 12.8764C161.439 12.8655 161.354 12.8918 161.29 12.9485C161.226 13.0052 161.19 13.0868 161.19 13.1723C161.185 13.2558 161.213 13.3379 161.269 13.4005C161.325 13.4631 161.403 13.501 161.486 13.5059C162.321 13.5515 163.152 13.6461 163.975 13.7892ZM168.884 15.2684C168.84 15.277 168.795 15.277 168.752 15.2684C167.993 14.9232 167.212 14.6288 166.414 14.3871C166.301 14.3545 166.215 14.2644 166.187 14.1507C166.159 14.0371 166.194 13.9171 166.278 13.836C166.363 13.7549 166.484 13.7251 166.597 13.7577C167.423 14.005 168.231 14.3078 169.016 14.6641C169.092 14.6983 169.151 14.7617 169.18 14.8399C169.208 14.9182 169.204 15.0046 169.168 15.0795C169.114 15.1862 169.004 15.2524 168.884 15.2495V15.2684ZM172.917 17.9436C172.976 17.9912 173.049 18.0178 173.125 18.0191V18.0002C173.204 18.0002 173.28 17.9711 173.339 17.9184C173.46 17.7939 173.46 17.596 173.339 17.4715C172.693 16.8982 172.004 16.3743 171.279 15.9041C171.184 15.8361 171.06 15.8257 170.955 15.8772C170.851 15.9287 170.783 16.0337 170.78 16.15C170.776 16.2664 170.837 16.3752 170.938 16.4329C171.635 16.8857 172.297 17.3907 172.917 17.9436ZM176.364 21.9029C176.255 21.9037 176.153 21.8492 176.093 21.7581C175.658 21.0491 175.174 20.3718 174.643 19.7312C174.535 19.5971 174.554 19.4006 174.688 19.2906C174.751 19.2361 174.833 19.2093 174.916 19.2164C174.999 19.2236 175.076 19.2639 175.129 19.3284C175.676 19.9855 176.177 20.6795 176.628 21.4056C176.675 21.476 176.69 21.5623 176.671 21.6443C176.652 21.7263 176.6 21.797 176.528 21.8399C176.478 21.8699 176.421 21.8852 176.364 21.884V21.9029ZM178.166 26.2902C178.21 26.4195 178.332 26.5059 178.468 26.5042V26.4853C178.501 26.4932 178.535 26.4953 178.569 26.4916C178.732 26.435 178.819 26.2584 178.764 26.0951C178.501 25.2791 178.191 24.4784 177.838 23.6968C177.791 23.5945 177.693 23.5251 177.58 23.5149C177.468 23.5046 177.359 23.555 177.294 23.6471C177.228 23.7391 177.217 23.8589 177.265 23.9612C177.608 24.7204 177.909 25.4979 178.166 26.2902ZM179.609 31.4391C179.452 31.438 179.318 31.3235 179.294 31.1685C179.174 30.325 179.017 29.4941 178.834 28.701C178.796 28.5272 178.906 28.3553 179.08 28.317C179.254 28.2788 179.426 28.3887 179.464 28.5625C179.647 29.3682 179.804 30.218 179.93 31.0804C179.953 31.2516 179.836 31.4102 179.666 31.4391H179.609ZM179.703 36.1664C179.707 36.3377 179.847 36.4748 180.018 36.4748H180.025C180.197 36.468 180.334 36.3263 180.333 36.1538C180.315 35.2851 180.27 34.4291 180.207 33.6045C180.201 33.5209 180.161 33.4433 180.098 33.389C180.034 33.3346 179.951 33.308 179.867 33.3149C179.784 33.3197 179.706 33.3579 179.652 33.4207C179.597 33.4835 179.57 33.5657 179.577 33.6485C179.64 34.4668 179.703 35.3103 179.703 36.1664ZM179.873 41.5482H179.842C179.67 41.5316 179.544 41.3801 179.558 41.2083C179.558 41.0575 179.575 40.9088 179.591 40.7598C179.604 40.6475 179.616 40.5351 179.621 40.4215C179.621 40.0652 179.642 39.7112 179.663 39.3623L179.663 39.3622L179.663 39.3621L179.663 39.362L179.663 39.3619L179.663 39.3618C179.676 39.1378 179.69 38.9158 179.697 38.6968C179.697 38.6128 179.731 38.5323 179.792 38.4741C179.853 38.4159 179.934 38.3849 180.018 38.3884C180.191 38.3951 180.327 38.5369 180.327 38.7094C180.327 39.1455 180.302 39.5853 180.275 40.0343L180.275 40.0344L180.275 40.0349C180.267 40.1754 180.259 40.3168 180.252 40.4593C180.252 40.6605 180.231 40.8583 180.21 41.0577L180.21 41.0578C180.202 41.1266 180.195 41.1956 180.189 41.265C180.17 41.425 180.035 41.5462 179.873 41.5482ZM178.72 46.5084H178.815H178.84C178.962 46.5095 179.075 46.4412 179.13 46.3321C179.369 45.4572 179.584 44.62 179.76 43.8143C179.791 43.6446 179.683 43.4806 179.514 43.4429C179.346 43.4078 179.18 43.5143 179.143 43.6821C178.979 44.4689 178.764 45.2872 178.512 46.1118C178.463 46.2784 178.555 46.4542 178.72 46.5084ZM176.981 51.2419C176.938 51.2509 176.893 51.2509 176.849 51.2419C176.773 51.2077 176.714 51.1443 176.685 51.066C176.657 50.9878 176.661 50.9014 176.698 50.8264C177.057 50.0396 177.391 49.2591 177.681 48.5037C177.71 48.4249 177.77 48.3612 177.847 48.3269C177.924 48.2926 178.012 48.2906 178.09 48.3212C178.252 48.3856 178.333 48.567 178.273 48.7303C177.971 49.4983 177.643 50.2914 177.271 51.0845C177.215 51.1777 177.115 51.2367 177.006 51.2419H176.981ZM174.486 55.711C174.533 55.7408 174.588 55.7562 174.643 55.7551H174.669C174.771 55.746 174.863 55.6872 174.914 55.5977C175.349 54.8424 175.765 54.0933 176.143 53.3568C176.223 53.2021 176.163 53.0119 176.008 52.932C175.853 52.852 175.662 52.9126 175.582 53.0673C175.211 53.7912 174.801 54.5402 174.373 55.283C174.329 55.3545 174.317 55.4403 174.339 55.521C174.36 55.6016 174.413 55.6702 174.486 55.711ZM171.947 60.0606C171.828 60.0642 171.719 60.0003 171.664 59.8958C171.609 59.7913 171.618 59.6647 171.688 59.5696C172.148 58.8835 172.614 58.1785 173.068 57.4483C173.162 57.3033 173.354 57.2588 173.503 57.3476C173.649 57.4416 173.691 57.6359 173.597 57.7819C173.163 58.4806 172.696 59.1982 172.211 59.9221C172.157 60.0027 172.069 60.0538 171.972 60.0606H171.947ZM168.796 64.1332C168.852 64.1715 168.917 64.1934 168.985 64.1961L169.01 64.2087C169.103 64.1991 169.186 64.1482 169.237 64.0702C169.735 63.4219 170.239 62.7358 170.756 62.0182C170.857 61.8757 170.823 61.6784 170.68 61.5776C170.537 61.4767 170.34 61.5106 170.239 61.6531C169.728 62.3644 169.224 63.0568 168.739 63.6862C168.633 63.8257 168.658 64.0247 168.796 64.1332ZM165.626 68.0862C165.685 68.1347 165.758 68.1614 165.834 68.1617C165.938 68.172 166.04 68.1294 166.105 68.0484C166.597 67.4693 167.145 66.8084 167.725 66.0782C167.778 66.0136 167.803 65.9303 167.793 65.8472C167.784 65.7641 167.741 65.6885 167.674 65.6376C167.538 65.5304 167.341 65.5529 167.233 65.6879C166.961 66.016 166.697 66.3399 166.444 66.6511C166.157 67.0028 165.884 67.3383 165.626 67.6455C165.567 67.7035 165.534 67.783 165.534 67.8658C165.534 67.9487 165.567 68.0281 165.626 68.0862Z" fill="#D1D3D4"/>
<path d="M157.687 13.6065C157.574 13.6155 157.465 13.5638 157.401 13.471C157.337 13.3781 157.328 13.2581 157.376 13.1562C157.425 13.0543 157.524 12.986 157.636 12.9771C158.054 12.9119 158.474 12.8698 158.897 12.8512C159.071 12.8407 159.22 12.9732 159.231 13.147C159.241 13.3208 159.108 13.4702 158.934 13.4806C158.172 13.5247 157.718 13.5939 157.718 13.5939L157.687 13.6065Z" fill="#D1D3D4"/>
<path d="M1.63426 42.0062C0.731957 40.9034 0.895362 39.2778 1.9991 38.3766L19.4822 24.1024C20.5843 23.2026 22.207 23.3657 23.108 24.4669L29.84 32.6947C30.7423 33.7975 30.5789 35.4232 29.4751 36.3243L11.9921 50.5985C10.89 51.4984 9.26723 51.3353 8.36625 50.2341L1.63426 42.0062Z" fill="white"/>
<path fill-rule="evenodd" clip-rule="evenodd" d="M10.0358 51.8907H10.2311C10.6728 51.8916 11.1009 51.7379 11.441 51.4564L30.4392 35.9466C30.8371 35.6295 31.0901 35.1655 31.1411 34.6597C31.1921 34.1538 31.0368 33.6488 30.7102 33.2588L22.7328 23.5085C22.4154 23.1111 21.9509 22.8583 21.4445 22.8074C20.9381 22.7564 20.4326 22.9116 20.0422 23.2378L1.04393 38.754C0.64608 39.0711 0.393035 39.535 0.342039 40.0409C0.291043 40.5467 0.446404 41.0518 0.772979 41.4418L8.77556 51.1983C9.0879 51.586 9.54081 51.8348 10.0358 51.8907ZM20.4392 23.7225C20.6707 23.5398 20.957 23.4401 21.252 23.4393C21.641 23.4387 22.0084 23.6176 22.2476 23.924L30.225 33.6554C30.4452 33.9161 30.55 34.2548 30.5156 34.5942C30.4812 34.9335 30.3103 35.2444 30.0423 35.4556L11.0566 50.9717C10.7928 51.1852 10.4557 51.2869 10.1177 51.255C9.77879 51.2226 9.46741 51.0546 9.25445 50.7892L1.27708 41.0452C1.06363 40.7791 0.961969 40.4406 0.993523 40.101C1.02117 39.7653 1.18231 39.4548 1.44091 39.2387L20.4392 23.7225Z" fill="#D1D3D4"/>
<path d="M0.678585 40.2892C0.504581 40.2892 0.363522 40.1483 0.363522 39.9745C0.354766 39.8916 0.379966 39.8087 0.433382 39.7447C0.486798 39.6807 0.563882 39.6409 0.647078 39.6346L16.4821 38.2624L20.9812 23.0358C21.0031 22.9547 21.0571 22.886 21.1309 22.8456C21.2046 22.8052 21.2916 22.7966 21.3719 22.8218C21.5364 22.8732 21.629 23.0471 21.5798 23.2121L17.0303 38.6464C16.9965 38.7712 16.8883 38.8616 16.7594 38.873L0.710091 40.2892H0.678585Z" fill="#D1D3D4"/>
<path d="M17.3771 36.6134C17.2031 36.6134 17.062 36.4725 17.062 36.2987C17.062 36.1249 17.2031 35.984 17.3771 35.984L30.7735 34.4544C30.9446 34.4394 31.0972 34.5614 31.1201 34.7313C31.1307 34.8149 31.1074 34.8993 31.0553 34.9655C31.0032 35.0318 30.9266 35.0744 30.8428 35.0838L17.4338 36.6134H17.3771Z" fill="#D1D3D4"/>
<path d="M10.2123 51.8901C10.1811 51.8961 10.149 51.8961 10.1178 51.8901C10.0374 51.8657 9.97045 51.8096 9.9324 51.7347C9.89435 51.6599 9.88847 51.5728 9.91612 51.4936L14.0812 38.6841C14.1161 38.5717 14.2084 38.4863 14.3234 38.4603C14.4383 38.4343 14.5584 38.4715 14.6384 38.5579C14.7185 38.6443 14.7463 38.7668 14.7114 38.8792L10.5462 51.6887C10.4931 51.8234 10.3563 51.9059 10.2123 51.8901Z" fill="#D1D3D4"/>
<path d="M171.489 85.0787C171.944 84.0303 173.163 83.5488 174.212 84.003L190.871 91.2185C191.921 91.6733 192.403 92.8934 191.948 93.943L188.543 101.787C188.088 102.835 186.87 103.317 185.821 102.862L169.161 95.647C168.111 95.1922 167.629 93.9721 168.085 92.9225L171.489 85.0787Z" fill="white"/>
<path fill-rule="evenodd" clip-rule="evenodd" d="M186.433 103.456C186.632 103.541 186.846 103.586 187.063 103.588C187.267 103.581 187.468 103.537 187.656 103.456C188.049 103.3 188.365 102.994 188.531 102.606L192.564 93.334C192.728 92.9434 192.728 92.5034 192.564 92.1128C192.409 91.718 192.103 91.401 191.714 91.2316L173.61 83.3948C172.799 83.0477 171.86 83.4185 171.505 84.2257L167.479 93.5102C167.318 93.9036 167.318 94.3443 167.479 94.7377C167.635 95.1325 167.944 95.4478 168.336 95.6126L186.433 103.456ZM172.129 84.4775C172.282 84.1231 172.631 83.8931 173.018 83.8921C173.142 83.8942 173.264 83.9221 173.377 83.9739L191.468 91.817C191.706 91.9166 191.893 92.1102 191.984 92.352C192.082 92.5878 192.082 92.8527 191.984 93.0885L187.952 102.379C187.853 102.616 187.662 102.802 187.422 102.895C187.184 102.993 186.917 102.993 186.679 102.895L168.575 95.0524C168.09 94.842 167.865 94.2802 168.071 93.7935L172.129 84.4775Z" fill="#D1D3D4"/>
<path d="M179.527 94.8881C179.419 94.8904 179.318 94.8353 179.262 94.7434L172.331 83.8034C172.239 83.6557 172.284 83.4612 172.432 83.3691C172.58 83.277 172.774 83.322 172.866 83.4698L179.659 94.2272L192.167 91.829C192.249 91.8105 192.335 91.8262 192.405 91.8725C192.476 91.9189 192.524 91.9918 192.539 92.0745C192.57 92.2461 192.458 92.411 192.287 92.4459L179.571 94.8881H179.527Z" fill="#D1D3D4"/>
<path d="M187.429 103.531C187.323 103.531 187.224 103.48 187.164 103.393L181.127 94.423C181.032 94.2786 181.072 94.0847 181.216 93.9887C181.285 93.9414 181.37 93.9241 181.452 93.9407C181.534 93.9573 181.605 94.0064 181.65 94.0768L187.687 103.072C187.783 103.218 187.743 103.414 187.599 103.512C187.545 103.533 187.486 103.54 187.429 103.531Z" fill="#D1D3D4"/>
<path d="M167.819 95.0519C167.663 95.0539 167.529 94.9414 167.504 94.7875C167.491 94.7048 167.512 94.6206 167.562 94.5532C167.612 94.4859 167.686 94.4411 167.769 94.4287L178.481 92.6788C178.593 92.6608 178.707 92.7042 178.779 92.7926C178.851 92.881 178.87 93.0009 178.829 93.1073C178.789 93.2137 178.694 93.2903 178.582 93.3083L167.87 95.0582L167.819 95.0519Z" fill="#D1D3D4"/>
<path d="M50.3298 11.2294C50.5928 10.437 51.4481 10.0075 52.2406 10.27L64.8426 14.443C65.6358 14.7057 66.0657 15.5619 65.8025 16.355L63.8327 22.2912C63.5697 23.0836 62.7144 23.513 61.9219 23.2506L49.3199 19.0775C48.5267 18.8148 48.0968 17.9586 48.3599 17.1655L50.3298 11.2294Z" fill="white"/>
<path fill-rule="evenodd" clip-rule="evenodd" d="M62.3552 23.7222C62.4813 23.7636 62.6131 23.7848 62.7458 23.7851C63.2893 23.7856 63.7719 23.438 63.9431 22.9227L66.2682 15.898C66.4846 15.2412 66.1301 14.533 65.4743 14.3118L51.7817 9.77968C51.1243 9.56819 50.4189 9.9247 50.2001 10.5791L47.8686 17.6038C47.7644 17.9194 47.7893 18.2633 47.9379 18.5606C48.0868 18.8577 48.3473 19.084 48.6626 19.1901L62.3552 23.7222ZM63.0294 23.1242C62.876 23.1871 62.7039 23.1871 62.5505 23.1242L48.8768 18.6236C48.7191 18.5727 48.5878 18.4619 48.5113 18.3151C48.4515 18.1613 48.4515 17.9906 48.5113 17.8367L50.8428 10.812C50.8951 10.6568 51.0058 10.5281 51.1516 10.4532C51.2999 10.3779 51.4721 10.3644 51.6305 10.4154L65.3231 14.9475C65.4795 15.0013 65.6085 15.1143 65.6822 15.2623C65.7453 15.4155 65.7453 15.5874 65.6822 15.7406L63.3445 22.7591C63.2921 22.9177 63.1788 23.0491 63.0294 23.1242Z" fill="#D1D3D4"/>
<path d="M56.7912 17.9435C56.6923 17.9426 56.5993 17.8961 56.5392 17.8176L50.7736 10.3019C50.6801 10.1643 50.71 9.9778 50.8418 9.87617C50.9735 9.77455 51.1617 9.79284 51.2713 9.91794L56.8858 17.2637L65.7831 14.7459C65.8642 14.7227 65.9512 14.733 66.0246 14.7744C66.098 14.8158 66.1517 14.8849 66.1738 14.9662C66.218 15.1329 66.1197 15.3042 65.9532 15.3502L56.8543 17.9561L56.7912 17.9435Z" fill="#D1D3D4"/>
<path d="M63.1049 23.7222C63.0086 23.7237 62.9174 23.6792 62.8592 23.6026L57.8812 17.4465C57.7716 17.3109 57.7927 17.1122 57.9285 17.0027C58.0642 16.8932 58.2631 16.9143 58.3727 17.0499L63.3507 23.2123C63.4579 23.3481 63.4354 23.5448 63.3003 23.6529C63.2446 23.6969 63.1759 23.7213 63.1049 23.7222V23.7222Z" fill="#D1D3D4"/>
<path d="M48.2531 18.8124C48.1405 18.8259 48.0293 18.7784 47.9613 18.6878C47.8933 18.5972 47.8789 18.4772 47.9235 18.3731C47.9681 18.2689 48.0649 18.1965 48.1775 18.183L55.8524 16.2191C55.9334 16.1981 56.0195 16.2101 56.0917 16.2527C56.1638 16.2952 56.216 16.3646 56.2368 16.4457C56.2577 16.5259 56.2454 16.6111 56.2027 16.6821C56.1601 16.7531 56.0906 16.8041 56.0099 16.8234L48.335 18.7936L48.2531 18.8124Z" fill="#D1D3D4"/>
</svg>
